PathFileType	4	(X/Y/Z)	Run_300 02
DataRate	CameraRate	NumFrames	NumMarkers	Units	OrigDataRate	OrigDataStartFrame	OrigNumFrames
100	100	4	42	mm	100	139	128
Frame#	Time	LASI			RASI			LPSI			RPSI			RTH1			RTH2			RTH3			LTH1			LTH2			LTH3			RTB1			RTB2			RTB3			LTB1			LTB2			LTB3			RCAL			RTOE			RMT5			LCAL			LTOE			LMT5			LACR			RACR			CLAV			C7			RUA1			RUA2			RUA3			RLEL			RMEL			LUA1			LUA2			LUA3			LLEL			LMEL			RFAsuperior			RFAradius			RFAulna			LFAsuperior			LFAradius			LFAulna			
		X1	Y1	Z1	X2	Y2	Z2	X3	Y3	Z3	X4	Y4	Z4	X5	Y5	Z5	X6	Y6	Z6	X7	Y7	Z7	X8	Y8	Z8	X9	Y9	Z9	X10	Y10	Z10	X11	Y11	Z11	X12	Y12	Z12	X13	Y13	Z13	X14	Y14	Z14	X15	Y15	Z15	X16	Y16	Z16	X17	Y17	Z17	X18	Y18	Z18	X19	Y19	Z19	X20	Y20	Z20	X21	Y21	Z21	X22	Y22	Z22	X23	Y23	Z23	X24	Y24	Z24	X25	Y25	Z25	X26	Y26	Z26	X27	Y27	Z27	X28	Y28	Z28	X29	Y29	Z29	X30	Y30	Z30	X31	Y31	Z31	X32	Y32	Z32	X33	Y33	Z33	X34	Y34	Z34	X35	Y35	Z35	X36	Y36	Z36	X37	Y37	Z37	X38	Y38	Z38	X39	Y39	Z39	X40	Y40	Z40	X41	Y41	Z41	X42	Y42	Z42	

136	1.78	898.599462	985.602027	-446.38786	917.913274	1011.945555	-207.083108	746.082315	1050.256381	-367.913255	745.380456	1053.80301	-268.086413	950.218126	804.142037	-142.329321	1047.933199	770.8929889999999	-167.195814	1045.394816	663.580948	-184.630604	798.430753	795.300066	-479.940271	809.666517	680.9403620000001	-465.852906	709.183552	601.594729	-447.069792	1096.404996	463.758933	-249.055946	1046.363821	394.648239	-200.871091	1040.124608	284.380044	-262.01354	651.021088	403.028665	-381.176271	556.975986	367.81341	-431.795669	531.228713	256.029698	-364.537932	918.963016	202.425155	-281.495473	1129.782172	136.343441	-300.243444	1080.835661	112.231035	-201.010901	382.427473	219.768435	-341.618994	526.339111	65.644369	-315.819064	467.062691	53.795279	-415.556171	931.888208	1485.221881	-472.492208	893.273158	1483.014795	-181.737239	994.818171	1410.361922	-298.724252	861.28382	1512.650709	-329.977041	792.235871	1420.592493	-96.01991700000001	719.838081	1395.842737	-149.285367	699.728706	1336.41162	-77.817308	636.093563	1298.055115	-62.657081	620.337683	1286.706336	-138.05236	905.366614	1377.305922	-574.030926	848.533302	1314.63747	-568.397439	909.156525	1280.958829	-617.6047150000001	901.871539	1197.056169	-652.950471	861.151655	1165.109835	-597.821154	710.44498	1209.405386	-44.984282	807.647282	1121.117361	-94.674583	745.763657	1085.58644	-80.848303	995.827437	1226.508577	-583.775235	1064.078798	1230.322367	-463.217262	1098.92304	1185.120915	-499.686114	
137	1.79	900.622328	988.681346	-445.722181	919.149937	1015.248815	-206.3955	748.434569	1054.436843	-368.526013	747.595651	1057.974811	-268.529769	948.054575	804.121705	-142.486579	1045.077762	769.645011	-167.558322	1040.556339	662.211283	-185.539689	795.5251919999999	799.901087	-480.714071	803.0045710000001	685.404942	-467.422886	701.31646	608.745061	-448.114892	1102.595543	462.352222	-249.466504	1059.112957	388.694292	-201.847376	1063.198693	278.63837	-264.62241	639.567001	410.518405	-384.383706	544.996612	377.784833	-435.722508	517.872978	264.882514	-369.824601	950.589398	183.975345	-284.217515	1167.617427	143.009912	-305.340258	1122.393222	111.445587	-206.271004	371.721321	235.952044	-349.231253	502.12372	69.673467	-318.476415	442.118613	60.422084	-417.467716	933.856118	1489.269215	-470.872656	894.233478	1486.304905	-181.966625	995.53792	1414.131241	-297.669139	862.350854	1516.243886	-329.975484	791.9873669999999	1425.934685	-95.94258000000001	720.331554	1401.843864	-150.942144	698.508627	1341.662141	-80.49581499999999	633.9579629999999	1303.721717	-66.63251200000001	620.028642	1292.81563	-142.725595	908.168164	1382.477167	-573.32589	849.959261	1320.55618	-567.6883319999999	910.838361	1285.978225	-616.469647	903.316147	1201.464075	-651.773701	861.801937	1170.00945	-596.642122	707.346794	1214.5474	-48.206619	805.150112	1125.970088	-96.612663	743.088977	1090.787921	-84.448993	996.750263	1231.992614	-582.7820359999999	1063.0824	1236.641224	-461.146116	1099.48344	1191.427571	-495.570014	
138	1.8	902.401986	991.391756	-445.307204	920.401756	1017.075111	-206.01416	750.7518679999999	1057.93473	-369.312469	749.723806	1061.116609	-269.027756	945.6962150000001	803.3623250000001	-143.288409	1041.378066	766.057514	-167.608005	1034.719792	658.450553	-185.818398	793.851151	803.964066	-481.732625	798.583938	689.427789	-468.325436	696.4337	614.412508	-449.09046	1107.099656	459.650372	-250.021354	1070.186374	382.451031	-202.645539	1083.585413	273.55648	-267.104397	630.5642800000001	416.886406	-386.400132	536.379448	386.391242	-439.43396	505.711326	273.588568	-373.726527	980.391329	167.589949	-286.557895	1200.370788	151.20501	-310.628319	1160.050217	113.170075	-211.590562	361.997401	252.158113	-356.332041	479.339359	75.21219000000001	-321.478839	419.307636	69.291653	-419.54394	935.290169	1492.393386	-469.506816	895.275535	1488.678188	-182.12421	996.3423	1416.927612	-296.736906	863.250975	1518.849647	-330.070899	791.988193	1430.401983	-96.055509	721.009514	1406.613547	-152.421127	697.755099	1345.777232	-82.67061699999999	632.455094	1308.060507	-69.960757	620.404494	1297.576774	-146.66051	909.823155	1386.629394	-572.4626469999999	850.689298	1325.233606	-566.8236450000001	911.773834	1290.15638	-615.434493	904.122926	1204.98653	-650.84729	861.946178	1173.981375	-595.712499	705.1765779999999	1218.609291	-50.859105	803.6692860000001	1129.996606	-98.297287	741.5551380000001	1095.047663	-87.48132	997.1831120000001	1235.978444	-582.027251	1061.928788	1241.055265	-459.409507	1099.659671	1196.022426	-492.34418	
139	1.81	903.8988000000001	993.613501	-445.115486	921.743556	1017.562197	-205.944895	752.967295	1060.573019	-370.056921	751.693394	1063.158349	-269.326209	943.334527	801.982946	-144.42908	1037.274105	760.433938	-167.111511	1028.260059	652.597434	-185.425405	793.8050919999999	807.142436	-482.714559	797.4338749999999	692.460205	-468.939375	694.91606	618.131141	-450.15194	1109.797365	455.909289	-250.585676	1078.707821	376.112022	-203.291467	1100.53724	269.115398	-269.214488	624.10514	421.655067	-387.353506	530.658145	393.461664	-442.649204	495.013852	281.756987	-376.575166	1006.985486	153.702989	-288.812485	1227.107303	160.142027	-315.46731	1192.139051	116.535248	-216.725875	353.754207	267.971731	-362.290781	457.567129	81.765513	-324.581202	398.287604	79.71601800000001	-421.60269	936.225453	1494.488825	-468.463891	896.305194	1490.067093	-182.02289	997.165084	1418.728802	-295.917944	863.894401	1520.3528	-330.054835	792.178443	1433.641751	-96.23981000000001	721.86801	1409.944673	-153.633461	697.354799	1348.68108	-84.264466	631.540792	1310.937974	-72.511579	621.252919	1300.80074	-149.692738	910.309706	1389.61447	-571.504674	850.844303	1328.462005	-565.817099	911.913533	1293.193162	-614.420775	904.20055	1207.517714	-650.217841	861.5545100000001	1176.88137	-595.067218	703.954834	1221.465955	-52.82184	803.213301	1133.085645	-99.68506499999999	741.123528	1098.236047	-89.83469700000001	997.051511	1238.375194	-581.3886220000001	1060.509791	1243.48204	-457.966545	1099.377576	1198.859778	-489.95421	
